# xmcd
#
# Track frame offsets:
#	150
#	15357
#	50279
#	73585
#	90938
#	119740
#	151224
#	170429
#	208193
#
# Disc length: 3174 seconds
#
# Revision: 2
# Processed by: cddbd v1.4PL0 Copyright (c) Steve Scherf et al.
# Submitted via: CDmax 1.8
#
DISCID=6d0c6409
DTITLE=Elliott Sharp's Terraplane - Blues For Next vol.1 "Plus"
DYEAR=1900
DGENRE=
TTITLE0=Rollin' and Tumblin'
TTITLE1=Long Dark Sky
TTITLE2=As It Falls
TTITLE3=Baptism of Concrete
TTITLE4=S-Boogie
TTITLE5=Slow Drag
TTITLE6=Train
TTITLE7=Chemically
TTITLE8=Feel Each Day
EXTD=
EXTT0=
EXTT1=
EXTT2=
EXTT3=
EXTT4=
EXTT5=
EXTT6=
EXTT7=
EXTT8=
PLAYORDER=
